<svg id="Layer_1" data-name="Layer 1" xmlns="http://www.w3.org/2000/svg" viewBox="0 0 136 136"><defs><style>.cls-1{fill:none;clip-rule:evenodd}</style><clipPath id="clip-path"><path class="cls-1" d="M-408.49 270.441c-.072-.047-.123-.03 0 0"/></clipPath><clipPath id="clip-path-2"><path class="cls-1" d="M-426.91 271.25l.036-.016a.763.763 0 0 1-.098-.043z"/></clipPath><clipPath id="clip-path-3"><path class="cls-1" d="M-426.77 271.06c.193.04-.028.143-.104.175a.663.663 0 0 0 .608-.022c-.03-.148-.39-.055-.504-.154"/></clipPath></defs><path d="M77.186.24C44.23.73 11.969 24.381 2.698 56.248-.772 68.18.361 81.772 4.969 94.302c8.488 23.085 28.771 42.568 53.785 41.424 7.45-.34 14.657-2.692 21.64-5.315 11.759-4.416 24.328-10.83 28.566-22.653 1.826-5.097 1.873-10.725 3.926-15.734 4.568-11.153 18.054-17.083 21.507-28.63 1.36-4.55.955-9.418.535-14.15 0 0 5.752-49.95-57.742-49.005z" fill="#93c90e" fill-rule="evenodd"/></svg>