<svg data-name="Layer 1" xmlns="http://www.w3.org/2000/svg" viewBox="0 0 157 192"><g fill-rule="evenodd"><path d="M33.39 175.41c10.14-15.37 2.81-35.57-1.5-53.47s-1.34-42.38 16.56-46.7c24.2-5.84 37.25 31.65 61.54 37.1 15.07 3.39 30.7-7.67 36.47-22s3.47-30.74-1.71-45.29c-5.6-15.74-14.35-30.12-21.86-45H0v191.07c13.42-1.12 26.25-4.89 33.39-15.71z" fill="#ff6f5e"/><path d="M90.24 18.19c-2 2.8-3.83 5.77-5.68 8.66s-3.56 5.89-5.15 8.94c1.34.71 4.38-.18 4 2.16a23 23 0 0 0-.77 5.39 7.47 7.47 0 0 0 .69 3.27 6.56 6.56 0 0 0 3.55 2.89c.68.32 1.36-1.12 1.93-2.32s1.1-2.11 1.27-.84c.74-1.39 1.64-3 2.56-4.53a39.83 39.83 0 0 1 2.74-3.94c1.62-2.08 2.62-2.67 1.72.41.2 2.49-5.08 9.06-3.9 11.94s4.92.2 6.1 3c-.81 1.77-2.53 5.28-3.19 7.09.68 2.32 4.9 0 4.19 1.74-.79 5.66-3.85 12.25-4.82 18.95.75.1 1.42.72 2.08.82a1 1 0 0 0 1-.38 3.74 3.74 0 0 0 1-1.46 85.89 85.89 0 0 1 7.84-21.11 158.09 158.09 0 0 1 12.89-20.78 201.77 201.77 0 0 1 15.91-19.24c1.41-1.52 2.85-3 4.32-4.45s2.92-2.89 4.42-4.26c3-2.79 6-5.3 9.22-7.86 1-.75 1.91-1.46 2.87-2.19V0h-52.52c-.51.58-1 1.14-1.54 1.73a185.24 185.24 0 0 0-12.73 16.46z" fill="#b3e0e0"/></g></svg>